<?xml version="1.0" encoding="UTF-8" standalone="no"?>
<!DOCTYPE svg PUBLIC "-//W3C//DTD SVG 1.1//EN" "http://www.w3.org/Graphics/SVG/1.1/DTD/svg11.dtd">
<!-- 由 Microsoft Visio, SVG Export 生成 plusBtn_hover.svg 页-1 -->
<svg xmlns="http://www.w3.org/2000/svg" xmlns:xlink="http://www.w3.org/1999/xlink" xmlns:ev="http://www.w3.org/2001/xml-events"
		xmlns:v="http://schemas.microsoft.com/visio/2003/SVGExtensions/" width="8.55943in" height="8.55943in"
		viewBox="0 0 616.279 616.279" xml:space="preserve" color-interpolation-filters="sRGB" class="st2">
	<v:documentProperties v:langID="2052" v:metric="true" v:viewMarkup="false"/>

	<style type="text/css">
	<![CDATA[
		.st1 {fill:#fefefe;stroke:none;stroke-linecap:butt;stroke-width:2.13946}
		.st2 {fill:none;fill-rule:evenodd;font-size:12px;overflow:visible;stroke-linecap:square;stroke-miterlimit:3}
	]]>
	</style>

	<g v:mID="0" v:index="1" v:groupContext="foregroundPage">
		<title>页-1</title>
		<v:pageProperties v:drawingScale="1" v:pageScale="1" v:drawingUnits="19" v:shadowOffsetX="9" v:shadowOffsetY="-9"/>
		<g id="shape1-1" v:mID="1" v:groupContext="shape" transform="translate(2.13946,-2.13946)">
			<title>工作表.1</title>
			<path d="M306 4.28 C136.99 4.28 0 141.29 0 310.28 C0 479.29 136.99 616.28 306 616.28 C474.99 616.28 612 479.29 612 310.28
						 C611.98 141.29 474.99 4.28 306 4.28 ZM306 558.9 C168.68 558.9 57.38 447.6 57.38 310.28 C57.38 172.96 168.68
						 61.67 306 61.67 C443.3 61.67 554.62 172.96 554.62 310.28 C554.62 447.6 443.3 558.9 306 558.9 ZM421.11 272.03
						 L344.23 272.03 L344.23 195.53 C344.23 184.97 335.66 176.4 325.11 176.4 L286.86 176.4 C276.28 176.4 267.73
						 184.97 267.73 195.53 L267.73 272.03 L191.27 272.03 C180.67 272.03 172.11 280.6 172.11 291.15 L172.11 329.4
						 C172.11 339.98 180.67 348.53 191.27 348.53 L267.75 348.53 L267.75 424.86 C267.75 435.41 276.3 443.96 286.88
						 443.96 L325.12 443.96 C335.68 443.96 344.25 435.41 344.25 424.86 L344.25 348.53 L421.13 348.53 C431.73 348.53
						 440.3 339.98 440.3 329.4 L440.3 291.15 C440.28 280.62 431.69 272.03 421.11 272.03 Z" class="st1"/>
		</g>
	</g>
</svg>
